PathFileType	4	(X/Y/Z)	C:/Users/beibeiliu/ov580/test_trc/User3\sequence.40_training_dense_left.trc
DataRate	CameraRate	NumFrames	NumMarkers	Units	OrigDataRate	OrigDataStartFrame	OrigNumFrames
120	120	23	19	mm	120	216	287
Frame#	Time	ThumbCMC			ThumbMCP			ThumbIP			ThumbTip			IndexMCP			IndexPIP			IndexTip			MiddleMCP			MiddlePIP			MiddleTip			RingMCP			RingPIP			RingTip			PinkyMCP			PinkyPIP			PinkyTip			BackHand1			BackHand2			BackHand3	
		X0	Y0	Z0	X1	Y1	Z1	X2	Y2	Z2	X3	Y3	Z3	X4	Y4	Z4	X5	Y5	Z5	X6	Y6	Z6	X7	Y7	Z7	X8	Y8	Z8	X9	Y9	Z9	X10	Y10	Z10	X11	Y11	Z11	X12	Y12	Z12	X13	Y13	Z13	X14	Y14	Z14	X15	Y15	Z15	X16	Y16	Z16	X17	Y17	Z17	X18	Y18	Z18	
215	1.79167	-173.815	-4.72153	60.1335	-148.788	0.0395881	39.3047	-133.485	1.33134	12.8248	-125.898	-3.64564	-6.65634	-172.735	23.639	-6.59057	-148.56	21.9304	-28.5463	-125.505	2.58221	-30.0681	-190.669	15.2726	-24.1199	-172.429	19.5578	-46.0362	-139.795	4.63529	-64.1292	-198.599	-0.625247	-25.3919	-185.822	-3.44507	-48.4902	-159.107	-10.193	-60.6336	-206.663	-26.3733	-20.8126	-193.328	-25.0795	-40.0419	-170.585	-30.4282	-56.4467	-222.832	-16.3855	23.4379	-231.198	-24.5298	52.736	-209.076	5.07707	47.9501	
216	1.8	-175.144	-7.50328	64.2516	-149.175	-1.52972	37.4489	-133.036	0.753058	15.0112	-127.078	-3.66382	-9.43943	-172.697	25.3953	-6.78216	-146.379	21.9644	-29.7428	-124.268	5.11632	-31.0263	-190.357	17.5594	-18.8406	-171.423	21.9416	-48.2431	-144.173	5.40919	-65.4422	-199.535	-3.43023	-20.8862	-184.299	-2.70003	-48.4243	-157.185	-10.3273	-61.3957	-205.224	-24.1572	-18.7693	-193.322	-24.8511	-39.3057	-170.344	-28.6403	-55.0636	-222.188	-13.2312	24.7591	-231.568	-28.1412	48.3362	-209.019	1.93104	48.8875	
217	1.80833	-171.725	-5.13785	61.5455	-148.079	-2.69566	38.1983	-132.547	-2.14582	17.1372	-126.77	-6.68259	-7.23842	-172.848	26.3504	-6.76495	-152.495	26.9347	-27.9288	-124.768	10.6026	-31.727	-191.526	16.7826	-23.4242	-174.331	21.0676	-47.0214	-146.409	8.57339	-66.1879	-198.328	-4.39476	-24.2435	-185.668	-5.17377	-48.0952	-155.461	-11.407	-61.7969	-204.922	-29.1956	-17.0213	-193.827	-30.2187	-40.8695	-168.4	-32.9758	-54.4157	-222.641	-15.751	24.5383	-230.513	-31.1466	50.3506	-209.574	-0.564851	48.793	
218	1.81667	-172.956	-7.77189	60.8825	-148.09	-5.61343	41.4516	-131.469	-3.04518	16.0918	-122.507	-9.20603	-7.12407	-177.646	24.7019	-5.35824	-157.808	30.0003	-28.1239	-128.754	17.505	-35.8901	-194.502	12.4142	-23.6498	-177.358	15.887	-47.081	-144.896	3.87562	-64.6536	-200.271	-9.71606	-22.4611	-182.41	-5.70183	-48.6291	-159.297	-15.4776	-60.7673	-206.701	-34.4133	-17.2507	-190.532	-29.1212	-40.0451	-168.907	-33.5922	-55.688	-223.07	-20.297	24.7268	-232.743	-33.9659	48.4101	-212.597	-3.5557	50.6311	
219	1.825	-175.585	-9.13995	60.6186	-148.381	-5.69818	40.7521	-131.615	-3.72735	11.9509	-124.295	-12.866	-6.03968	-182.651	23.363	-5.94666	-164.325	30.0527	-31.0291	-132.53	20.0618	-40.7278	-194.375	6.76387	-22.664	-176.13	8.49721	-48.8381	-142.48	-5.94269	-58.5512	-199.254	-12.4375	-26.7479	-183.285	-9.83329	-46.2951	-155.141	-20.333	-60.3367	-204.903	-34.8796	-16.2388	-195.443	-35.772	-39.9994	-173.331	-35.4104	-53.3744	-222.827	-25.7681	23.1555	-232.693	-35.0655	49.3839	-213.363	-5.85545	46.6053	
220	1.83333	-177.482	-7.90087	60.6259	-151.808	-6.45519	37.4345	-133.57	-6.16078	12.3375	-129.981	-16.5459	-11.8278	-186.626	18.9487	-9.88207	-165.63	27.1031	-34.1764	-140.045	22.304	-43.8269	-192.524	3.80712	-22.1759	-167.533	4.77085	-46.4177	-132.517	-14.2806	-45.6085	-200.538	-17.5707	-27.9076	-183.215	-19.356	-48.1584	-154.805	-26.3085	-55.7984	-208.909	-40.5314	-20.5851	-198.956	-38.6842	-40.0316	-174.556	-37.3868	-55.2509	-224.867	-31.7404	20.5416	-230.298	-37.6924	48.2274	-215.169	-5.65926	45.7515	
221	1.84167	-179.084	-7.54684	59.6073	-153.278	-7.46733	32.8445	-137.712	-9.14694	5.33439	-131.547	-18.7543	-16.1499	-189.889	14.4756	-12.2281	-170.653	22.0489	-35.4832	-141.762	16.4758	-46.0709	-192.162	0.776966	-25.2494	-164.857	-4.5717	-46.0332	-130.789	-23.1084	-38.0907	-200.604	-19.6775	-25.8303	-180.895	-22.7223	-48.0946	-150.516	-32.7873	-53.8129	-209.521	-41.1627	-18.1638	-201.336	-42.3907	-40.9769	-179.418	-43.9414	-58.5158	-224.893	-32.057	20.7155	-235.61	-44.525	51.5511	-217.459	-5.98777	44.5551	
222	1.85	-180.875	-9.72094	56.7713	-154.791	-9.44361	29.8486	-139.414	-10.3302	2.6588	-133.756	-21.8157	-20.4625	-191.09	13.6432	-12.4475	-170.948	19.9341	-35.6372	-143.544	14.4755	-46.2264	-193.639	-3.98158	-24.7687	-162.459	-7.27254	-44.8644	-130.842	-27.2133	-35.5229	-201.274	-21.9038	-27.8435	-182.507	-25.7823	-48.9343	-153.223	-36.4099	-53.9976	-210.533	-47.5046	-14.3939	-202.017	-46.4912	-43.6886	-181.757	-47.5984	-61.1541	-227.245	-36.3111	19.9182	-232.969	-44.2161	50.1265	-219.82	-12.9281	45.7512	
223	1.85833	-180.342	-9.03797	56.0405	-155.325	-11.9715	33.9394	-142.69	-14.3664	5.81861	-131.935	-21.9069	-17.8071	-190.707	12.0121	-15.3156	-171.624	15.1247	-38.6208	-143.31	9.01281	-49.4098	-193.517	-8.89353	-28.8793	-165.24	-7.78508	-45.8546	-129.694	-25.6801	-36.8542	-202.614	-23.9005	-26.9861	-180.86	-27.4173	-50.3417	-154.791	-34.8126	-54.3376	-211.821	-46	-19.4724	-203.102	-45.3254	-42.6245	-184.202	-49.0688	-62.2231	-228.09	-33.9249	21.0147	-236.133	-47.5761	46.1803	-219.168	-14.3187	43.766	
224	1.86667	-180.808	-11.8617	54.4801	-157.206	-13.9063	28.6304	-136.532	-14.3857	6.26563	-130.521	-24.6398	-17.042	-190.14	12.3709	-16.29	-169.138	15.4443	-39.8745	-141.277	10.696	-48.3388	-193.676	-7.67401	-30.8502	-165.41	-10.406	-49.1153	-130.958	-22.9846	-39.919	-204.004	-27.3895	-25.6205	-182.724	-29.2659	-52.3974	-154.551	-34.6385	-55.2244	-213.533	-49.8507	-20.4322	-204.793	-50.0227	-43.9419	-183.604	-48.9146	-63.2363	-228.967	-38.6942	21.1908	-236.393	-47.4142	48.8439	-219.33	-11.0689	42.9838	
225	1.875	-180.504	-10.8398	56.2296	-153.811	-11.503	32.4359	-141.777	-17.5213	8.86576	-133.481	-27.4897	-19.5542	-190.433	11.6985	-18.2408	-167.862	18.4927	-37.6155	-146.444	9.92768	-48.8616	-197.746	-5.141	-25.7637	-171.863	-7.57671	-49.7456	-136.829	-18.6112	-44.8665	-204.073	-26.7193	-30.2439	-182.019	-23.6881	-50.0246	-154.769	-34.6093	-52.7764	-210.198	-47.1426	-19.8254	-200.72	-48.3121	-43.1021	-179.119	-49.8133	-61.3684	-229.532	-38.5466	21.9267	-233.531	-49.6024	50.9579	-219.4	-13.3453	44.4102	
226	1.88333	-181.947	-9.32073	55.8837	-158.48	-13.5644	30.6427	-140.159	-15.144	2.8453	-138.22	-28.6269	-20.3806	-192.195	12.601	-14.2622	-170.846	19.488	-37.1603	-146.378	15.5027	-47.0524	-200.589	-3.11994	-27.3917	-174.58	-1.59336	-51.5212	-139.517	-11.7756	-48.7318	-202.936	-22.7244	-27.7797	-182.104	-25.9697	-48.8361	-149.666	-31.9714	-46.2053	-209.775	-48.5868	-21.3333	-195.75	-48.7042	-43.2315	-173.21	-45.258	-53.0838	-228.875	-40.5556	18.3829	-233.794	-46.8729	48.801	-222.273	-15.4707	45.6329	
227	1.89167	-185.63	-9.67088	56.7246	-160.929	-9.29884	30.9879	-145.941	-14.873	4.34702	-142.383	-28.4423	-18.2066	-195.212	13.154	-14.2046	-175.65	22.4328	-36.2633	-145.677	17.7665	-46.4885	-205.042	-1.17921	-27.6899	-182.372	3.70055	-54.6369	-146.425	-4.06113	-57.4495	-203.887	-25.5329	-30.7825	-179.222	-23.4033	-48.9539	-147.766	-31.8767	-41.5154	-205.434	-47.1456	-17.1108	-191.274	-47.5365	-39.4584	-163.488	-48.4385	-47.2873	-229.417	-35.2819	18.9159	-232.917	-48.9326	48.1393	-224.153	-9.52554	43.3856	
228	1.9	-186.602	-7.9098	57.0533	-161.414	-9.21458	33.1096	-146.946	-15.1271	5.47493	-139.878	-26.8057	-19.6345	-195.738	12.411	-17.9755	-177.197	20.7222	-37.8559	-146.188	19.6645	-47.4217	-207.683	-2.81034	-29.0387	-187.486	1.18234	-55.2563	-153.78	-4.99326	-60.5967	-205.102	-28.7097	-26.4987	-179.574	-22.9778	-47.4869	-151.945	-29.7408	-41.2368	-204.434	-49.5148	-18.4232	-183.005	-46.2578	-40.5109	-156.701	-43.7183	-37.2497	-229.481	-39.2891	19.7225	-234.631	-47.3579	48.5697	-224.408	-11.3797	45.6331	
229	1.90833	-187.227	-9.54385	55.614	-160.834	-9.57174	32.8456	-147.537	-15.4322	4.88437	-142.928	-28.5769	-21.8133	-197.579	15.5555	-14.4455	-178.372	22.0884	-37.9649	-151.779	18.6115	-47.3495	-209.297	-3.1487	-25.2421	-188.837	3.18343	-56.4577	-157.279	-5.44218	-62.7987	-205.768	-26.8084	-29.0071	-181.225	-27.4177	-48.0763	-149.349	-34.1979	-38.1509	-203.33	-47.5074	-22.0199	-187.148	-46.9451	-37.8845	-155.692	-47.8132	-38.7614	-227.862	-38.3195	21.5498	-234.958	-50.8818	48.6403	-224.944	-14.338	40.956	
230	1.91667	-186.319	-8.58655	55.7467	-162.213	-10.0411	27.2363	-147.426	-15.2971	2.24274	-143.523	-28.6331	-21.2736	-199.507	12.9153	-14.7994	-178.88	19.5639	-40.8268	-151.44	15.2531	-50.8922	-212.382	-8.66114	-28.2101	-193.457	1.45856	-56.469	-155.288	-4.63806	-64.7704	-205.722	-24.7655	-27.4095	-186.178	-29.519	-49.5205	-153.961	-31.0437	-42.9496	-205.776	-51.011	-19.9078	-184.942	-46.8233	-40.1451	-156.822	-48.3478	-40.4141	-230.031	-38.4728	18.6322	-232.766	-45.6216	47.3517	-225.653	-14.0842	42.3467	
231	1.925	-186.615	-7.81979	51.9296	-158.74	-5.31016	26.8197	-146.046	-12.2703	0.95764	-138.265	-24.2194	-19.8668	-199.031	14.4559	-17.7855	-181.38	20.1289	-41.0205	-151.239	11.496	-54.0538	-211.564	-3.03939	-29.6726	-192.357	0.710014	-57.9342	-157.155	-6.11171	-66.9131	-207.999	-26.7555	-29.4432	-188.163	-31.1819	-50.6727	-156.001	-33.4081	-46.2788	-206.753	-49.3904	-16.7811	-190.978	-48.4678	-39.7211	-166.695	-49.8722	-47.754	-230.608	-37.2958	20.2075	-234.524	-46.8574	47.8986	-224.945	-12.9992	42.1897	
232	1.93333	-186.131	-5.54226	52.1484	-162.217	-7.10672	26.9869	-144.525	-8.80107	2.86146	-136.803	-20.1815	-16.3352	-200.835	12.9217	-20.0947	-182.695	20.4485	-42.2868	-156.322	15.4147	-52.9147	-212.368	-6.37495	-32.014	-191.911	0.421707	-57.5772	-159.638	-7.16549	-64.1193	-209.698	-29.9129	-31.6671	-189.493	-27.1562	-50.9505	-156.831	-33.2026	-50.1158	-208.923	-48.2756	-20.3734	-194.35	-51.258	-42.2167	-168.503	-49.287	-53.0878	-229.769	-37.4582	23.949	-233.827	-47.633	49.1459	-225.556	-12.6665	45.548	
233	1.94167	-187.407	-7.0179	56.3804	-163.087	-5.8893	30.2643	-144.128	-6.21102	5.83552	-138.518	-18.4561	-21.9164	-201.333	12.2218	-17.0355	-183.766	18.7529	-44.0278	-157.382	12.2098	-55.4152	-208.811	-6.58821	-28.2139	-188.954	-3.32278	-53.6852	-149.187	-14.7952	-53.9832	-210.05	-27.3645	-24.9591	-190.95	-30.9026	-50.6573	-155.163	-32.617	-50.1188	-211.418	-49.8884	-17.4906	-198.243	-49.0722	-42.6361	-178.272	-52.2645	-54.6637	-232.354	-41.1732	21.507	-235.487	-47.7613	50.0295	-225.995	-12.0115	40.7467	
234	1.95	-188.002	-5.00325	53.0594	-163.335	-5.90947	31.3184	-147.442	-6.31714	2.99514	-142.547	-19.0833	-17.486	-201.139	12.5674	-19.6165	-181.932	17.2973	-44.3992	-156.247	14.291	-54.6482	-204.498	-6.59409	-31.7295	-176.911	-6.69092	-51.091	-144.621	-18.6894	-43.4144	-208.399	-28.059	-30.8338	-188.558	-29.0024	-48.7564	-155.119	-36.5431	-47.8559	-212.572	-49.3487	-15.8868	-204.533	-51.5833	-41.4435	-184.362	-50.8515	-58.7867	-232.197	-37.5365	21.3315	-236.774	-43.899	50.0482	-227.235	-11.3846	42.9605	
235	1.95833	-188.398	-6.62406	57.1876	-163.06	-4.62819	29.4565	-145.976	-6.87674	4.38889	-143.553	-20.3103	-19.7783	-201.539	8.38358	-20.464	-184.678	15.8473	-42.2631	-154.159	12.4312	-55.9498	-201.642	-11.0749	-33.3313	-172.058	-8.24138	-48.6218	-141.419	-22.9583	-38.6045	-207.724	-30.9103	-30.2558	-185.241	-30.4253	-49.1002	-156.383	-38.1204	-48.1923	-214.981	-53.4566	-17.4496	-204.953	-51.2526	-41.922	-188.436	-51.3575	-56.9432	-230.898	-40.5895	22.5805	-236.514	-49.4117	51.3245	-226.624	-8.13166	41.5815	
236	1.96667	-185.841	-4.54028	56.0467	-160.424	-4.41222	30.0848	-144.748	-7.10882	2.49212	-139.525	-19.3524	-20.0211	-198.737	11.1622	-22.0374	-182.955	13.4882	-44.1546	-154.38	8.63952	-58.9397	-202.177	-11.1475	-28.4994	-171.583	-13.0565	-49.5302	-141.13	-23.347	-38.5278	-207.848	-30.6803	-26.6818	-183.345	-34.4208	-50.6855	-153.646	-40.2411	-47.5781	-214.914	-55.5205	-16.0038	-205.112	-50.8656	-42.9597	-185.254	-49.2361	-58.1634	-230.712	-37.9176	24.1279	-237.42	-48.2403	48.9935	-225.64	-11.7241	41.5503	
237	1.975	-188.159	-8.78159	50.7049	-161.347	-5.71851	26.1004	-147.322	-10.6777	3.43711	-136.727	-19.0441	-19.4574	-198.238	9.63041	-23.0235	-182.152	15.2368	-42.8023	-156.727	7.99205	-56.9264	-200.905	-9.59168	-31.5972	-173.195	-9.83573	-50.3647	-140.054	-25.9054	-40.4314	-208.028	-32.2679	-28.0813	-187.771	-31.9073	-50.6013	-156.302	-36.4464	-50.4914	-212.066	-50.6289	-17.408	-206.365	-53.2491	-39.5125	-181.64	-52.6957	-58.2225	-229.292	-42.2421	21.7176	-236.069	-46.325	47.4061	-226.464	-14.5625	41.5142	
